<mxfile host="app.diagrams.net" modified="2023-02-11T02:32:25.117Z" agent="5.0 (Windows)" etag="clDnQPdHO6apcdB0RPDf" version="20.8.19" type="github">
  <diagram name="第 1 页" id="GiBOQHFT7XzUcaniyEGX">
    <mxGraphModel dx="223" dy="566" grid="1" gridSize="10" guides="1" tooltips="1" connect="1" arrows="1" fold="1" page="1" pageScale="1" pageWidth="827" pageHeight="1169" math="0" shadow="0">
      <root>
        <mxCell id="0" />
        <mxCell id="1" parent="0" />
        <mxCell id="sikpofgj40KiMEMfl98N-62" value="" style="group" vertex="1" connectable="0" parent="1">
          <mxGeometry x="1067" y="330" width="143" height="180" as="geometry" />
        </mxCell>
        <mxCell id="sikpofgj40KiMEMfl98N-29" value="" style="rounded=1;whiteSpace=wrap;html=1;movable=0;resizable=0;rotatable=0;deletable=0;editable=0;locked=1;connectable=0;" vertex="1" parent="sikpofgj40KiMEMfl98N-62">
          <mxGeometry x="3" width="140" height="180" as="geometry" />
        </mxCell>
        <mxCell id="sikpofgj40KiMEMfl98N-30" value="data" style="text;html=1;strokeColor=none;fillColor=none;align=center;verticalAlign=middle;whiteSpace=wrap;rounded=0;" vertex="1" parent="sikpofgj40KiMEMfl98N-62">
          <mxGeometry y="20" width="60" height="30" as="geometry" />
        </mxCell>
        <mxCell id="sikpofgj40KiMEMfl98N-31" value="next" style="text;html=1;strokeColor=none;fillColor=none;align=center;verticalAlign=middle;whiteSpace=wrap;rounded=0;" vertex="1" parent="sikpofgj40KiMEMfl98N-62">
          <mxGeometry y="60" width="60" height="30" as="geometry" />
        </mxCell>
        <mxCell id="sikpofgj40KiMEMfl98N-34" value="prev" style="text;html=1;strokeColor=none;fillColor=none;align=center;verticalAlign=middle;whiteSpace=wrap;rounded=0;" vertex="1" parent="sikpofgj40KiMEMfl98N-62">
          <mxGeometry y="100" width="60" height="30" as="geometry" />
        </mxCell>
        <mxCell id="sikpofgj40KiMEMfl98N-35" value="set" style="text;html=1;strokeColor=none;fillColor=none;align=center;verticalAlign=middle;whiteSpace=wrap;rounded=0;" vertex="1" parent="sikpofgj40KiMEMfl98N-62">
          <mxGeometry y="140" width="60" height="30" as="geometry" />
        </mxCell>
        <mxCell id="sikpofgj40KiMEMfl98N-36" value="" style="rounded=0;whiteSpace=wrap;html=1;" vertex="1" parent="sikpofgj40KiMEMfl98N-62">
          <mxGeometry x="53" y="25" width="70" height="20" as="geometry" />
        </mxCell>
        <mxCell id="sikpofgj40KiMEMfl98N-58" value="" style="rounded=0;whiteSpace=wrap;html=1;" vertex="1" parent="sikpofgj40KiMEMfl98N-62">
          <mxGeometry x="73" y="60" width="30" height="30" as="geometry" />
        </mxCell>
        <mxCell id="sikpofgj40KiMEMfl98N-59" value="" style="rounded=0;whiteSpace=wrap;html=1;" vertex="1" parent="sikpofgj40KiMEMfl98N-62">
          <mxGeometry x="73" y="100" width="30" height="30" as="geometry" />
        </mxCell>
        <mxCell id="sikpofgj40KiMEMfl98N-61" value="" style="rounded=0;whiteSpace=wrap;html=1;" vertex="1" parent="sikpofgj40KiMEMfl98N-62">
          <mxGeometry x="73" y="140" width="30" height="30" as="geometry" />
        </mxCell>
        <mxCell id="sikpofgj40KiMEMfl98N-63" value="" style="group" vertex="1" connectable="0" parent="1">
          <mxGeometry x="1270" y="330" width="143" height="180" as="geometry" />
        </mxCell>
        <mxCell id="sikpofgj40KiMEMfl98N-64" value="" style="rounded=1;whiteSpace=wrap;html=1;movable=0;resizable=0;rotatable=0;deletable=0;editable=0;locked=1;connectable=0;" vertex="1" parent="sikpofgj40KiMEMfl98N-63">
          <mxGeometry x="3" width="140" height="180" as="geometry" />
        </mxCell>
        <mxCell id="sikpofgj40KiMEMfl98N-65" value="data" style="text;html=1;strokeColor=none;fillColor=none;align=center;verticalAlign=middle;whiteSpace=wrap;rounded=0;" vertex="1" parent="sikpofgj40KiMEMfl98N-63">
          <mxGeometry y="20" width="60" height="30" as="geometry" />
        </mxCell>
        <mxCell id="sikpofgj40KiMEMfl98N-66" value="next" style="text;html=1;strokeColor=none;fillColor=none;align=center;verticalAlign=middle;whiteSpace=wrap;rounded=0;" vertex="1" parent="sikpofgj40KiMEMfl98N-63">
          <mxGeometry y="60" width="60" height="30" as="geometry" />
        </mxCell>
        <mxCell id="sikpofgj40KiMEMfl98N-67" value="prev" style="text;html=1;strokeColor=none;fillColor=none;align=center;verticalAlign=middle;whiteSpace=wrap;rounded=0;" vertex="1" parent="sikpofgj40KiMEMfl98N-63">
          <mxGeometry y="100" width="60" height="30" as="geometry" />
        </mxCell>
        <mxCell id="sikpofgj40KiMEMfl98N-68" value="set" style="text;html=1;strokeColor=none;fillColor=none;align=center;verticalAlign=middle;whiteSpace=wrap;rounded=0;" vertex="1" parent="sikpofgj40KiMEMfl98N-63">
          <mxGeometry y="140" width="60" height="30" as="geometry" />
        </mxCell>
        <mxCell id="sikpofgj40KiMEMfl98N-69" value="" style="rounded=0;whiteSpace=wrap;html=1;" vertex="1" parent="sikpofgj40KiMEMfl98N-63">
          <mxGeometry x="53" y="25" width="70" height="20" as="geometry" />
        </mxCell>
        <mxCell id="sikpofgj40KiMEMfl98N-70" value="" style="rounded=0;whiteSpace=wrap;html=1;" vertex="1" parent="sikpofgj40KiMEMfl98N-63">
          <mxGeometry x="73" y="60" width="30" height="30" as="geometry" />
        </mxCell>
        <mxCell id="sikpofgj40KiMEMfl98N-71" value="" style="rounded=0;whiteSpace=wrap;html=1;" vertex="1" parent="sikpofgj40KiMEMfl98N-63">
          <mxGeometry x="73" y="100" width="30" height="30" as="geometry" />
        </mxCell>
        <mxCell id="sikpofgj40KiMEMfl98N-72" value="" style="rounded=0;whiteSpace=wrap;html=1;" vertex="1" parent="sikpofgj40KiMEMfl98N-63">
          <mxGeometry x="73" y="140" width="30" height="30" as="geometry" />
        </mxCell>
        <mxCell id="sikpofgj40KiMEMfl98N-225" value="" style="group" vertex="1" connectable="0" parent="1">
          <mxGeometry x="1380" y="42" width="110" height="170" as="geometry" />
        </mxCell>
        <mxCell id="sikpofgj40KiMEMfl98N-215" value="" style="ellipse;whiteSpace=wrap;html=1;aspect=fixed;fillColor=#050505;container=0;" vertex="1" parent="sikpofgj40KiMEMfl98N-225">
          <mxGeometry x="67" y="118" width="15" height="15" as="geometry" />
        </mxCell>
        <mxCell id="sikpofgj40KiMEMfl98N-216" value="" style="ellipse;whiteSpace=wrap;html=1;aspect=fixed;fillColor=#050505;container=0;" vertex="1" parent="sikpofgj40KiMEMfl98N-225">
          <mxGeometry x="68" y="117" width="15" height="15" as="geometry" />
        </mxCell>
        <mxCell id="sikpofgj40KiMEMfl98N-217" value="list 1" style="text;html=1;strokeColor=none;fillColor=none;align=center;verticalAlign=middle;whiteSpace=wrap;rounded=0;container=0;" vertex="1" parent="sikpofgj40KiMEMfl98N-225">
          <mxGeometry x="30" width="60" height="30" as="geometry" />
        </mxCell>
        <mxCell id="sikpofgj40KiMEMfl98N-218" value="" style="rounded=0;whiteSpace=wrap;html=1;movable=1;resizable=1;rotatable=1;deletable=1;editable=1;locked=0;connectable=1;" vertex="1" parent="sikpofgj40KiMEMfl98N-225">
          <mxGeometry x="10" y="30" width="100" height="140" as="geometry" />
        </mxCell>
        <mxCell id="sikpofgj40KiMEMfl98N-219" value="front" style="text;html=1;strokeColor=none;fillColor=none;align=center;verticalAlign=middle;whiteSpace=wrap;rounded=0;container=0;" vertex="1" parent="sikpofgj40KiMEMfl98N-225">
          <mxGeometry y="60" width="60" height="30" as="geometry" />
        </mxCell>
        <mxCell id="sikpofgj40KiMEMfl98N-220" value="back" style="text;html=1;strokeColor=none;fillColor=none;align=center;verticalAlign=middle;whiteSpace=wrap;rounded=0;container=0;" vertex="1" parent="sikpofgj40KiMEMfl98N-225">
          <mxGeometry y="110" width="60" height="30" as="geometry" />
        </mxCell>
        <mxCell id="sikpofgj40KiMEMfl98N-221" value="" style="rounded=0;whiteSpace=wrap;html=1;container=0;" vertex="1" parent="sikpofgj40KiMEMfl98N-225">
          <mxGeometry x="60" y="60" width="30" height="30" as="geometry" />
        </mxCell>
        <mxCell id="sikpofgj40KiMEMfl98N-222" value="" style="rounded=0;whiteSpace=wrap;html=1;container=0;" vertex="1" parent="sikpofgj40KiMEMfl98N-225">
          <mxGeometry x="60.5" y="110.5" width="30" height="30" as="geometry" />
        </mxCell>
        <mxCell id="sikpofgj40KiMEMfl98N-223" value="" style="ellipse;whiteSpace=wrap;html=1;aspect=fixed;fillColor=#050505;container=0;" vertex="1" parent="sikpofgj40KiMEMfl98N-225">
          <mxGeometry x="68" y="68" width="15" height="15" as="geometry" />
        </mxCell>
        <mxCell id="sikpofgj40KiMEMfl98N-224" value="" style="ellipse;whiteSpace=wrap;html=1;aspect=fixed;fillColor=#050505;container=0;" vertex="1" parent="sikpofgj40KiMEMfl98N-225">
          <mxGeometry x="68" y="117" width="15" height="15" as="geometry" />
        </mxCell>
        <mxCell id="sikpofgj40KiMEMfl98N-226" value="" style="ellipse;whiteSpace=wrap;html=1;aspect=fixed;fillColor=#050505;container=0;" vertex="1" parent="1">
          <mxGeometry x="1337" y="198" width="15" height="15" as="geometry" />
        </mxCell>
        <mxCell id="sikpofgj40KiMEMfl98N-227" value="" style="ellipse;whiteSpace=wrap;html=1;aspect=fixed;fillColor=#050505;container=0;" vertex="1" parent="1">
          <mxGeometry x="1338" y="197" width="15" height="15" as="geometry" />
        </mxCell>
        <mxCell id="sikpofgj40KiMEMfl98N-228" value="list 1" style="text;html=1;strokeColor=none;fillColor=none;align=center;verticalAlign=middle;whiteSpace=wrap;rounded=0;container=0;" vertex="1" parent="1">
          <mxGeometry x="1300" y="80" width="60" height="30" as="geometry" />
        </mxCell>
        <mxCell id="sikpofgj40KiMEMfl98N-229" value="" style="rounded=0;whiteSpace=wrap;html=1;movable=1;resizable=1;rotatable=1;deletable=1;editable=1;locked=0;connectable=1;" vertex="1" parent="1">
          <mxGeometry x="1280" y="110" width="100" height="140" as="geometry" />
        </mxCell>
        <mxCell id="sikpofgj40KiMEMfl98N-230" value="front" style="text;html=1;strokeColor=none;fillColor=none;align=center;verticalAlign=middle;whiteSpace=wrap;rounded=0;container=0;" vertex="1" parent="1">
          <mxGeometry x="1270" y="140" width="60" height="30" as="geometry" />
        </mxCell>
        <mxCell id="sikpofgj40KiMEMfl98N-231" value="back" style="text;html=1;strokeColor=none;fillColor=none;align=center;verticalAlign=middle;whiteSpace=wrap;rounded=0;container=0;" vertex="1" parent="1">
          <mxGeometry x="1270" y="190" width="60" height="30" as="geometry" />
        </mxCell>
        <mxCell id="sikpofgj40KiMEMfl98N-232" value="" style="rounded=0;whiteSpace=wrap;html=1;container=0;" vertex="1" parent="1">
          <mxGeometry x="1330" y="140" width="30" height="30" as="geometry" />
        </mxCell>
        <mxCell id="sikpofgj40KiMEMfl98N-233" value="" style="rounded=0;whiteSpace=wrap;html=1;container=0;" vertex="1" parent="1">
          <mxGeometry x="1330.5" y="190.5" width="30" height="30" as="geometry" />
        </mxCell>
        <mxCell id="sikpofgj40KiMEMfl98N-234" value="" style="ellipse;whiteSpace=wrap;html=1;aspect=fixed;fillColor=#050505;container=0;" vertex="1" parent="1">
          <mxGeometry x="1338" y="148" width="15" height="15" as="geometry" />
        </mxCell>
        <mxCell id="sikpofgj40KiMEMfl98N-235" value="" style="ellipse;whiteSpace=wrap;html=1;aspect=fixed;fillColor=#050505;container=0;" vertex="1" parent="1">
          <mxGeometry x="1338" y="197" width="15" height="15" as="geometry" />
        </mxCell>
        <mxCell id="sikpofgj40KiMEMfl98N-236" value="" style="ellipse;whiteSpace=wrap;html=1;aspect=fixed;fillColor=#050505;container=0;" vertex="1" parent="1">
          <mxGeometry x="1337" y="198" width="15" height="15" as="geometry" />
        </mxCell>
        <mxCell id="sikpofgj40KiMEMfl98N-237" value="" style="ellipse;whiteSpace=wrap;html=1;aspect=fixed;fillColor=#050505;container=0;" vertex="1" parent="1">
          <mxGeometry x="1338" y="197" width="15" height="15" as="geometry" />
        </mxCell>
        <mxCell id="sikpofgj40KiMEMfl98N-238" value="list 1" style="text;html=1;strokeColor=none;fillColor=none;align=center;verticalAlign=middle;whiteSpace=wrap;rounded=0;container=0;" vertex="1" parent="1">
          <mxGeometry x="1300" y="80" width="60" height="30" as="geometry" />
        </mxCell>
        <mxCell id="sikpofgj40KiMEMfl98N-239" value="" style="rounded=0;whiteSpace=wrap;html=1;movable=1;resizable=1;rotatable=1;deletable=1;editable=1;locked=0;connectable=1;fillColor=#050505;" vertex="1" parent="1">
          <mxGeometry x="1280" y="110" width="100" height="140" as="geometry" />
        </mxCell>
        <mxCell id="sikpofgj40KiMEMfl98N-240" value="front" style="text;html=1;strokeColor=none;fillColor=none;align=center;verticalAlign=middle;whiteSpace=wrap;rounded=0;container=0;" vertex="1" parent="1">
          <mxGeometry x="1270" y="140" width="60" height="30" as="geometry" />
        </mxCell>
        <mxCell id="sikpofgj40KiMEMfl98N-241" value="back" style="text;html=1;strokeColor=none;fillColor=none;align=center;verticalAlign=middle;whiteSpace=wrap;rounded=0;container=0;" vertex="1" parent="1">
          <mxGeometry x="1270" y="190" width="60" height="30" as="geometry" />
        </mxCell>
        <mxCell id="sikpofgj40KiMEMfl98N-242" value="" style="rounded=0;whiteSpace=wrap;html=1;container=0;fillColor=#050505;" vertex="1" parent="1">
          <mxGeometry x="1330" y="140" width="30" height="30" as="geometry" />
        </mxCell>
        <mxCell id="sikpofgj40KiMEMfl98N-243" value="" style="rounded=0;whiteSpace=wrap;html=1;container=0;fillColor=#050505;" vertex="1" parent="1">
          <mxGeometry x="1330.5" y="190.5" width="30" height="30" as="geometry" />
        </mxCell>
        <mxCell id="sikpofgj40KiMEMfl98N-244" value="" style="ellipse;whiteSpace=wrap;html=1;aspect=fixed;fillColor=#050505;container=0;" vertex="1" parent="1">
          <mxGeometry x="1338" y="148" width="15" height="15" as="geometry" />
        </mxCell>
        <mxCell id="sikpofgj40KiMEMfl98N-245" value="" style="ellipse;whiteSpace=wrap;html=1;aspect=fixed;fillColor=#050505;container=0;" vertex="1" parent="1">
          <mxGeometry x="1338" y="197" width="15" height="15" as="geometry" />
        </mxCell>
      </root>
    </mxGraphModel>
  </diagram>
</mxfile>
